<?xml version="1.0" encoding="UTF-8" standalone="no"?>
<!-- Created with Inkscape (http://www.inkscape.org/) -->

<svg
   width="7.8551407in"
   height="9.2865114in"
   viewBox="0 0 199.52057 235.87741"
   version="1.1"
   id="svg5"
   inkscape:version="1.4 (1:1.4+202410161351+e7c3feb100)"
   sodipodi:docname="End-to_end_Accuracy_Check.svg"
   inkscape:export-filename="End-to_end_Accuracy_Check_wh.svg"
   inkscape:export-xdpi="96"
   inkscape:export-ydpi="96"
   xmlns:inkscape="http://www.inkscape.org/namespaces/inkscape"
   xmlns:sodipodi="http://sodipodi.sourceforge.net/DTD/sodipodi-0.dtd"
   xmlns="http://www.w3.org/2000/svg"
   xmlns:svg="http://www.w3.org/2000/svg">
  <sodipodi:namedview
     id="namedview7"
     pagecolor="#ffffff"
     bordercolor="#666666"
     borderopacity="1.0"
     inkscape:pageshadow="2"
     inkscape:pageopacity="0.0"
     inkscape:pagecheckerboard="0"
     inkscape:document-units="mm"
     showgrid="false"
     inkscape:zoom="0.30963538"
     inkscape:cx="25.83684"
     inkscape:cy="902.67461"
     inkscape:window-width="1868"
     inkscape:window-height="1016"
     inkscape:window-x="1972"
     inkscape:window-y="27"
     inkscape:window-maximized="1"
     inkscape:current-layer="g2"
     units="mm"
     inkscape:showpageshadow="2"
     inkscape:deskcolor="#d1d1d1"
     inkscape:export-bgcolor="#ffffffff">
    <inkscape:page
       x="0"
       y="0"
       width="199.52057"
       height="235.8774"
       id="page2"
       margin="0"
       bleed="0" />
  </sodipodi:namedview>
  <defs
     id="defs2">
    <clipPath
       clipPathUnits="userSpaceOnUse"
       id="clipPath187">
      <path
         d="m 410.289,397.535 h 13.459 V 379.51 h -13.459 z"
         id="path185" />
    </clipPath>
    <clipPath
       clipPathUnits="userSpaceOnUse"
       id="clipPath191">
      <path
         d="m 410.289,393.039 h 5.84 v -11.828 h -5.84 z"
         id="path189" />
    </clipPath>
    <clipPath
       clipPathUnits="userSpaceOnUse"
       id="clipPath219">
      <path
         d="m 276.707,280.598 h 13.46 v -18.026 h -13.46 z"
         id="path217" />
    </clipPath>
    <clipPath
       clipPathUnits="userSpaceOnUse"
       id="clipPath223">
      <path
         d="m 276.707,276.103 h 5.84 v -11.829 h -5.84 z"
         id="path221" />
    </clipPath>
  </defs>
  <g
     inkscape:label="Layer 1"
     inkscape:groupmode="layer"
     id="layer1"
     transform="translate(-22.974934,-66.950633)">
    <g
       id="g2361">
      <g
         id="g2"
         transform="matrix(1.113395,0,0,1.113395,-1.6765701,-5.2442531)">
        <g
           id="g3"
           transform="translate(7.3556215,18.594454)">
          <rect
             style="fill:#ffffff;stroke:#888888;stroke-width:0.237637"
             id="rect1"
             width="182.27464"
             height="214.5085"
             x="13.634013"
             y="45.863926" />
          <path
             id="path1508"
             style="fill:#000000;stroke:none;stroke-width:0.6"
             d="M 20.885107,85.001611 V 133.00178 H 68.885278 V 85.001611 Z m 17.999935,6.000151 h 6.000151 v 11.999788 h 6.00015 v -5.999638 h 5.999634 v 5.999638 h 6.00015 v 6.00015 h -6.00015 v 11.99978 h 6.00015 v 6.00015 H 50.885343 v -6.00015 h -6.00015 v 6.00015 h -6.000151 v -11.99978 h 6.000151 v -12.0003 H 32.885408 v -5.999638 h 5.999634 z M 26.885258,115.00185 h 6.00015 v 11.99978 h -6.00015 z" />
          <path
             style="fill:#000000;stroke:none;stroke-width:0.6"
             d="m 56.885234,109.00169 v -6 h -6 v 6 z"
             id="path1512" />
          <path
             d="M 193.88538,79.001685 14.885234,258.00183"
             style="fill:none;stroke:#a9a9a9;stroke-width:0.250119;stroke-linecap:butt;stroke-linejoin:miter;stroke-miterlimit:11.339;stroke-dasharray:none;stroke-opacity:1"
             id="path39"
             sodipodi:nodetypes="cc" />
          <g
             id="g141"
             transform="matrix(0.35277777,0,0,-0.35277777,104.38517,122.66079)">
            <path
               d="M 0,0 V -259.886"
               style="fill:none;stroke:#000000;stroke-width:0.709;stroke-linecap:butt;stroke-linejoin:miter;stroke-miterlimit:4.088;stroke-dasharray:none;stroke-opacity:1"
               id="path143" />
          </g>
          <g
             id="g145"
             transform="matrix(0.35277777,0,0,-0.35277777,150.22613,168.50176)">
            <path
               d="M 0,0 H -259.886"
               style="fill:none;stroke:#000000;stroke-width:0.709;stroke-linecap:butt;stroke-linejoin:miter;stroke-miterlimit:4.088;stroke-dasharray:none;stroke-opacity:1"
               id="path147" />
          </g>
          <path
             id="path1848"
             style="fill:#000000;stroke:none;stroke-width:0.6"
             d="m 139.8856,204.00185 v 48.00018 h 47.99965 v -48.00018 z m 5.99963,6.00016 h 12.0003 v 11.99978 h 5.99963 v -11.99978 h 12.00031 v 5.99963 h 6.00015 v 6.00015 h -12.00031 v 6.00015 h -6.00015 v 5.99963 h 6.00015 v 6.00015 h -6.00015 v 6.00015 h -5.99963 v -12.0003 h -6.00015 v 6.00015 h -6.00015 v -6.00015 h 6.00015 v -5.99963 h -6.00015 v -6.00015 h 6.00015 v -6.00015 h -6.00015 z m 30.00024,23.99956 h 6.00015 v 12.0003 h -6.00015 z" />
          <g
             id="g157"
             transform="matrix(0.35277777,0,0,-0.35277777,104.38524,163.62672)">
            <path
               d="m 0,0 c 7.632,0 13.819,-6.187 13.819,-13.819 0,-7.632 -6.187,-13.819 -13.819,-13.819 -7.632,0 -13.819,6.187 -13.819,13.819 C -13.819,-6.187 -7.632,0 0,0 Z"
               style="fill:none;stroke:#a9a9a9;stroke-width:0.709;stroke-linecap:butt;stroke-linejoin:miter;stroke-miterlimit:11.339;stroke-dasharray:none;stroke-opacity:1"
               id="path159" />
          </g>
          <g
             id="g161"
             transform="matrix(0.35277777,0,0,-0.35277777,104.38524,158.62673)">
            <path
               d="m 0,0 c 15.46,0 27.992,-12.533 27.992,-27.992 0,-15.46 -12.532,-27.992 -27.992,-27.992 -15.46,0 -27.992,12.532 -27.992,27.992 C -27.992,-12.533 -15.46,0 0,0 Z"
               style="fill:none;stroke:#000000;stroke-width:0.709;stroke-linecap:butt;stroke-linejoin:miter;stroke-miterlimit:11.339;stroke-dasharray:none;stroke-opacity:1"
               id="path163" />
          </g>
          <g
             id="g165"
             transform="matrix(0.35277777,0,0,-0.35277777,104.38524,153.62674)">
            <path
               d="m 0,0 c 23.287,0 42.165,-18.878 42.165,-42.165 0,-23.288 -18.878,-42.166 -42.165,-42.166 -23.287,0 -42.165,18.878 -42.165,42.166 C -42.165,-18.878 -23.287,0 0,0 Z"
               style="fill:none;stroke:#a9a9a9;stroke-width:0.709;stroke-linecap:butt;stroke-linejoin:miter;stroke-miterlimit:11.339;stroke-dasharray:none;stroke-opacity:1"
               id="path167" />
          </g>
          <g
             id="g169"
             transform="matrix(0.35277777,0,0,-0.35277777,104.38524,148.62693)">
            <path
               d="m 0,0 c 31.115,0 56.339,-25.224 56.339,-56.339 0,-31.115 -25.224,-56.338 -56.339,-56.338 -31.115,0 -56.339,25.223 -56.339,56.338 C -56.339,-25.224 -31.115,0 0,0 Z"
               style="fill:none;stroke:#000000;stroke-width:0.709;stroke-linecap:butt;stroke-linejoin:miter;stroke-miterlimit:11.339;stroke-dasharray:none;stroke-opacity:1"
               id="path171" />
          </g>
          <g
             id="g173"
             transform="matrix(0.35277777,0,0,-0.35277777,104.38524,143.62694)">
            <path
               d="m 0,0 c 38.943,0 70.512,-31.569 70.512,-70.512 0,-38.942 -31.569,-70.512 -70.512,-70.512 -38.943,0 -70.512,31.57 -70.512,70.512 C -70.512,-31.569 -38.943,0 0,0 Z"
               style="fill:none;stroke:#a9a9a9;stroke-width:0.709;stroke-linecap:butt;stroke-linejoin:miter;stroke-miterlimit:11.339;stroke-dasharray:none;stroke-opacity:1"
               id="path175" />
          </g>
          <g
             id="g177"
             transform="matrix(0.35277777,0,0,-0.35277777,104.38524,138.62695)">
            <path
               d="m 0,0 c 46.77,0 84.685,-37.915 84.685,-84.685 0,-46.77 -37.915,-84.685 -84.685,-84.685 -46.77,0 -84.685,37.915 -84.685,84.685 C -84.685,-37.915 -46.77,0 0,0 Z"
               style="fill:none;stroke:#000000;stroke-width:0.709;stroke-linecap:butt;stroke-linejoin:miter;stroke-miterlimit:11.339;stroke-dasharray:none;stroke-opacity:1"
               id="path179" />
          </g>
          <g
             id="g181"
             transform="matrix(0.35277777,0,0,-0.35277777,-0.61476249,308.00173)">
            <g
               id="g183" />
            <g
               id="g211">
              <g
                 clip-path="url(#clipPath187)"
                 id="g209">
                <g
                   id="g203">
                  <g
                     id="g193" />
                  <g
                     id="g201">
                    <g
                       clip-path="url(#clipPath191)"
                       id="g199">
                      <text
                         transform="matrix(1,0,0,-1,410.2891,384.458)"
                         style="font-variant:normal;font-weight:normal;font-stretch:normal;font-size:10px;font-family:Arial;-inkscape-font-specification:ArialMT;writing-mode:lr-tb;fill:#000000;fill-opacity:1;fill-rule:nonzero;stroke:none"
                         id="text197"><tspan
                           x="0"
                           y="0"
                           id="tspan195">+</tspan></text>
                    </g>
                  </g>
                </g>
                <text
                   transform="matrix(1,0,0,-1,416.1289,384.458)"
                   style="font-variant:normal;font-weight:normal;font-stretch:normal;font-size:15.2388px;font-family:Arial;-inkscape-font-specification:ArialMT;writing-mode:lr-tb;fill:#000000;fill-opacity:1;fill-rule:nonzero;stroke:none"
                   id="text207"><tspan
                     x="0"
                     y="0"
                     id="tspan205">x</tspan></text>
              </g>
            </g>
          </g>
          <g
             id="g213"
             transform="matrix(0.35277777,0,0,-0.35277777,0.44357085,221.74735)">
            <g
               id="g215" />
            <g
               id="g243">
              <g
                 clip-path="url(#clipPath219)"
                 id="g241">
                <g
                   id="g235">
                  <g
                     id="g225" />
                  <g
                     id="g233">
                    <g
                       clip-path="url(#clipPath223)"
                       id="g231">
                      <text
                         transform="matrix(1,0,0,-1,276.707,267.5205)"
                         style="font-variant:normal;font-weight:normal;font-stretch:normal;font-size:10px;font-family:Arial;-inkscape-font-specification:ArialMT;writing-mode:lr-tb;fill:#000000;fill-opacity:1;fill-rule:nonzero;stroke:none"
                         id="text229"><tspan
                           x="0"
                           y="0"
                           id="tspan227">+</tspan></text>
                    </g>
                  </g>
                </g>
                <text
                   transform="matrix(1,0,0,-1,282.5469,267.5205)"
                   style="font-variant:normal;font-weight:normal;font-stretch:normal;font-size:15.2388px;font-family:Arial;-inkscape-font-specification:ArialMT;writing-mode:lr-tb;fill:#000000;fill-opacity:1;fill-rule:nonzero;stroke:none"
                   id="text239"><tspan
                     x="0"
                     y="0"
                     id="tspan237">y</tspan></text>
              </g>
            </g>
          </g>
          <path
             d="M 14.885234,79.001685 H 193.88538 V 258.00183 H 14.885234 Z"
             style="fill:none;stroke:#000000;stroke-width:0.200025;stroke-linecap:butt;stroke-linejoin:miter;stroke-miterlimit:11.339;stroke-dasharray:none;stroke-opacity:1"
             id="path245" />
          <g
             id="g1"
             transform="translate(-0.5291666,4.2333341)">
            <path
               id="path253"
               style="mix-blend-mode:normal;fill:#303234;fill-opacity:1;fill-rule:nonzero;stroke:none;stroke-width:0.352778"
               d="m 173.23808,44.054757 c -0.66954,-0.0078 -1.33439,0.10988 -1.99109,0.272334 -0.17425,0.04339 -0.21549,0.165491 -0.21549,0.329179 0.002,2.226026 0.003,4.451956 5.1e-4,6.677629 -3.6e-4,0.207435 0.0888,0.306657 0.29973,0.303857 0.32314,-0.0039 0.64666,-0.0046 0.96945,10e-4 0.19716,0.0035 0.28932,-0.08291 0.28732,-0.279053 -0.002,-0.259998 -5.2e-4,-0.519801 -5.2e-4,-0.779797 0,-0.259997 0.0146,-0.521212 -0.004,-0.779798 -0.0155,-0.212035 0.0675,-0.23793 0.25166,-0.21394 0.23671,0.03065 0.47776,0.04424 0.71624,0.03824 1.10948,-0.02893 1.91398,-0.663221 2.10271,-1.683101 0.1235,-0.667807 0.12399,-1.346981 0.0227,-2.017965 -0.1584,-1.047043 -0.73527,-1.662262 -1.76785,-1.816426 -0.2241,-0.03343 -0.4481,-0.04961 -0.67128,-0.05219 z m 0.0656,1.284676 c 0.0596,-3.55e-4 0.11902,0.0013 0.17828,0.0062 0.38417,0.03175 0.63993,0.294662 0.66921,0.738456 0.0328,0.496359 0.0363,0.998994 0.001,1.494999 -0.0392,0.555978 -0.32418,0.778649 -0.89039,0.77618 -0.67416,-0.0032 -0.67437,-0.0029 -0.67437,-0.653707 v -0.873848 h 0.001 c 0,-0.415925 0.005,-0.831381 -0.003,-1.246952 -0.002,-0.137231 0.0274,-0.216122 0.17983,-0.218592 0.17939,-0.0026 0.35958,-0.02167 0.53847,-0.02274 z" />
            <path
               id="path257"
               style="mix-blend-mode:normal;fill:#303234;fill-opacity:1;fill-rule:nonzero;stroke:none;stroke-width:0.352778"
               d="m 151.06476,42.015605 c -0.0349,0.0018 -0.0735,0.006 -0.11679,0.01137 -0.25788,0.0321 -0.5111,0.08681 -0.76016,0.167949 -0.26176,0.08573 -0.38382,0.229668 -0.37982,0.521415 0.013,1.029404 0.005,2.05946 0.005,3.089217 0,1.039988 -0.002,2.080236 10e-4,3.120223 7e-4,0.259645 0.0353,0.533502 0.35243,0.576192 0.92146,0.123476 1.84667,0.194234 2.76107,-0.05271 0.86713,-0.234244 1.40341,-0.774813 1.52653,-1.685685 0.0769,-0.570087 0.0813,-1.144446 0.0171,-1.711007 -0.11818,-1.045279 -0.64692,-1.676054 -1.53169,-1.903243 -0.44097,-0.113599 -0.89117,-0.11084 -1.33532,-0.05581 -0.23526,0.02928 -0.2536,-0.05417 -0.2496,-0.241846 0.01,-0.488949 0.005,-0.97798 0.003,-1.466577 -9.3e-4,-0.300652 -0.0485,-0.38238 -0.29249,-0.369486 z m 0.95239,3.308325 c 0.69243,-0.0022 0.92678,0.335844 0.92708,1.207678 3.5e-4,0.290689 0.007,0.581445 -0.002,0.871781 -0.0184,0.607836 -0.2445,0.859731 -0.84387,0.954981 -0.74048,0.117475 -0.74053,0.117302 -0.74053,-0.617534 v -0.871264 c 0,-0.42545 0.006,-0.851311 -0.003,-1.276408 -0.004,-0.152047 0.0355,-0.236966 0.19844,-0.232027 0.0102,3.53e-4 0.0208,-0.0012 0.031,-0.0026 0.16106,-0.02255 0.30482,-0.03422 0.43304,-0.03462 z" />
            <path
               id="path261"
               style="mix-blend-mode:normal;fill:#303234;fill-opacity:1;fill-rule:nonzero;stroke:none;stroke-width:0.352778"
               d="m 167.73092,44.046488 c -0.19396,-7.26e-4 -0.39374,0.01932 -0.59634,0.06046 -0.95779,0.194733 -1.54717,0.769712 -1.7539,1.721858 -0.1249,0.575028 -0.0981,1.159438 -0.0537,1.740463 0.085,1.110543 0.7718,1.849009 1.86965,2.016931 0.64664,0.09877 1.28914,0.02895 1.92908,-0.07441 0.70996,-0.115006 0.70993,-0.116122 0.70693,-0.842843 -0.001,-0.403228 -0.0261,-0.426497 -0.43253,-0.390157 -0.59196,0.0529 -1.18568,0.09596 -1.7787,0.05116 -0.4572,-0.03457 -0.74078,-0.344248 -0.78238,-0.789099 -0.0138,-0.146401 0.003,-0.226142 0.18913,-0.220142 0.44838,0.01513 0.89745,0.0052 1.34618,0.0052 0.44873,0 0.89744,-0.0016 1.34617,5.16e-4 0.14323,7.05e-4 0.29837,-0.0038 0.30437,-0.185518 0.0247,-0.698146 0.0417,-1.397057 -0.32866,-2.033468 -0.39183,-0.672437 -1.12474,-1.057771 -1.96526,-1.060917 z m -0.0625,1.25212 c 0.0283,-1.78e-4 0.057,7.42e-4 0.0863,0.0031 0.44872,0.03598 0.74342,0.371037 0.77411,0.863513 0.01,0.156987 -0.0269,0.22746 -0.20051,0.216524 -0.21766,-0.01341 -0.43705,-0.0031 -0.65577,-0.0031 -0.18732,0 -0.37741,-0.02006 -0.56121,0.0047 -0.2921,0.03916 -0.30271,-0.112976 -0.26355,-0.327112 0.0853,-0.469966 0.3958,-0.754907 0.82063,-0.757577 z" />
            <path
               id="path265"
               style="mix-blend-mode:normal;fill:#303234;fill-opacity:1;fill-rule:nonzero;stroke:none;stroke-width:0.352778"
               d="m 185.74119,44.059924 c -0.15216,-5.53e-4 -0.30507,0.0082 -0.45733,0.02274 -0.93028,0.08855 -1.609,0.660807 -1.85312,1.563212 -0.1768,0.653696 -0.12986,1.320965 -0.0791,1.984892 0.0289,0.378177 0.14202,0.73748 0.35863,1.051098 0.61418,0.889356 1.51107,1.039174 2.49391,0.901237 0.91898,-0.128763 1.50334,-0.658536 1.75028,-1.554944 0.10631,-0.385938 0.11712,-0.780339 0.10232,-1.176155 h 5.1e-4 c 0,-0.197556 0.009,-0.396396 -0.002,-0.593246 -0.0607,-1.077736 -0.63232,-1.84695 -1.55907,-2.102714 -0.24893,-0.06879 -0.50138,-0.09519 -0.755,-0.09612 z m -0.0837,1.318783 c 0.0224,-6.38e-4 0.0452,-6.18e-4 0.0682,0 0.33937,0.0092 0.58594,0.185818 0.70693,0.51108 0.025,0.06773 0.0515,0.13838 0.0579,0.209289 0.0222,0.247297 0.0357,0.495514 0.047,0.659908 h 5.1e-4 c -0.0159,0.404283 0.004,0.72863 -0.10697,1.037663 -0.11853,0.331612 -0.3613,0.512963 -0.69608,0.528133 -0.35384,0.01588 -0.65021,-0.138068 -0.75499,-0.479557 -0.20144,-0.656166 -0.18801,-1.331965 -0.0103,-1.989543 0.0857,-0.316177 0.35195,-0.467406 0.68781,-0.476973 z" />
            <path
               id="path269"
               style="mix-blend-mode:normal;fill:#303234;fill-opacity:1;fill-rule:nonzero;stroke:none;stroke-width:0.352778"
               d="m 146.54049,44.057857 c -0.15978,8.5e-5 -0.32002,0.01117 -0.47956,0.03049 -0.96485,0.116416 -1.62889,0.709793 -1.83245,1.660881 -0.1588,0.739421 -0.15962,1.492886 0.007,2.229838 0.19156,0.846312 0.73728,1.376057 1.58853,1.578198 0.29598,0.07024 0.59888,0.08301 0.90227,0.06925 1.10349,-0.04974 1.85508,-0.690617 2.08721,-1.761649 0.0716,-0.330906 0.0503,-0.662808 0.0496,-0.994771 0,-0.239536 0.0145,-0.479661 -0.002,-0.717786 -0.0695,-1.000829 -0.63467,-1.732204 -1.52755,-1.989026 -0.26128,-0.07519 -0.52694,-0.105562 -0.79323,-0.10542 z m -0.0124,1.32085 c 0.38911,0.0056 0.67214,0.211775 0.75293,0.612882 0.11606,0.573264 0.12147,1.156536 -0.007,1.729094 -0.0882,0.392641 -0.38487,0.604614 -0.76481,0.604614 -0.37324,0 -0.65957,-0.222859 -0.76894,-0.606681 -0.0808,-0.282927 -0.0784,-0.573858 -0.0692,-0.864547 -0.005,-0.290336 -0.0141,-0.580725 0.0656,-0.865064 0.11359,-0.403577 0.38845,-0.616295 0.79168,-0.610298 z" />
            <path
               id="path273"
               style="mix-blend-mode:normal;fill:#303234;fill-opacity:1;fill-rule:nonzero;stroke:none;stroke-width:0.352778"
               d="m 157.75479,44.056824 c -0.15139,-8.4e-5 -0.30275,0.0099 -0.4532,0.02739 -0.98461,0.114653 -1.66689,0.732764 -1.86656,1.703255 -0.1312,0.638175 -0.11369,1.290415 -0.0336,1.927531 0.12453,0.98954 0.72292,1.629451 1.62109,1.838648 0.31679,0.07406 0.63992,0.09267 0.96377,0.0708 1.09749,-0.07514 1.81464,-0.698696 2.04535,-1.770434 0.0707,-0.328083 0.0676,-0.661127 0.0796,-1.079521 -0.01,-0.173919 -0.0169,-0.434042 -0.0387,-0.692981 -0.0914,-1.081615 -0.79363,-1.834599 -1.86501,-1.992643 -0.14993,-0.02203 -0.3013,-0.03196 -0.45268,-0.03204 z m 10e-4,1.321883 c 0.38841,0.0081 0.64508,0.220913 0.74879,0.621667 0.0737,0.284339 0.069,0.575245 0.0641,0.86558 h 5.2e-4 c 0.006,0.280106 0.007,0.560655 -0.0672,0.834058 -0.10583,0.391936 -0.38075,0.618582 -0.75293,0.625285 -0.38841,0.0071 -0.70215,-0.213225 -0.78858,-0.618567 -0.12241,-0.571852 -0.12308,-1.155692 0.001,-1.727543 0.0893,-0.408517 0.38645,-0.6093 0.79426,-0.60048 z" />
            <path
               d="m 193.6414,47.49535 c 0,0.561622 -0.0148,1.12395 0.006,1.684867 0.0109,0.29845 -0.10478,0.386644 -0.38347,0.368652 -0.26988,-0.01729 -0.54257,-0.01411 -0.8128,-7.05e-4 -0.25718,0.01305 -0.35137,-0.08925 -0.34925,-0.346428 0.009,-1.008944 0.005,-2.017889 0.003,-3.026833 -3.5e-4,-0.124531 -0.0102,-0.249061 -0.0183,-0.373592 -0.003,-0.0515 -0.002,-0.10795 -0.0219,-0.153458 -0.21414,-0.49142 -0.65617,-0.286456 -1.01389,-0.315384 -0.25611,-0.02046 -0.44379,0.108656 -0.48401,0.382412 -0.0197,0.132997 -0.0229,0.269169 -0.0233,0.40393 -0.002,1.008945 -0.007,2.017889 0.003,3.026833 0.003,0.28822 -0.0811,0.426156 -0.39264,0.403931 -0.29069,-0.02081 -0.58385,-0.0085 -0.87559,-0.0032 -0.19438,0.0035 -0.28469,-0.07338 -0.28364,-0.276578 0.006,-1.154641 -0.013,-2.309636 0.0123,-3.463572 0.0215,-0.963436 0.56162,-1.564569 1.536,-1.703564 0.55492,-0.07937 1.12395,-0.08784 1.68098,0.0247 0.895,0.181327 1.40406,0.801158 1.4157,1.714147 0.007,0.551039 0.001,1.10243 0.001,1.653822"
               style="mix-blend-mode:normal;fill:#303234;fill-opacity:1;fill-rule:nonzero;stroke:none;stroke-width:0.352778"
               id="path277" />
            <path
               d="m 176.69949,45.502861 c 0,-0.89535 0.007,-1.791053 -0.005,-2.686403 -0.004,-0.250825 0.1009,-0.391936 0.32068,-0.470605 0.29563,-0.106186 0.59972,-0.170039 0.91299,-0.200025 0.23248,-0.02222 0.32279,0.07197 0.31926,0.301272 -0.008,0.489303 0.005,0.978958 -0.006,1.467908 -0.004,0.177447 0.0476,0.235656 0.22719,0.227895 0.32279,-0.01341 0.64735,0.0049 0.97014,-0.0067 0.22154,-0.0078 0.29563,0.08678 0.29104,0.297392 -0.0215,0.961672 0.14993,0.857955 -0.83079,0.862188 -0.6537,0.0032 -0.6537,7.06e-4 -0.6537,0.646995 0,0.67698 -10e-4,1.353608 3.5e-4,2.030589 10e-4,0.385586 0.0875,0.470958 0.4819,0.476602 0.23989,0.0032 0.48013,0.0074 0.72002,-0.0014 0.1905,-0.0071 0.26388,0.07832 0.26141,0.26035 -0.0134,0.941917 0.12523,0.801159 -0.7553,0.896056 -0.39476,0.04233 -0.79093,0.04233 -1.18463,-0.02858 -0.61418,-0.11042 -0.96943,-0.458964 -1.03963,-1.077031 -0.073,-0.642408 -0.0187,-1.289402 -0.0289,-1.93428 -0.006,-0.354189 -0.001,-0.708025 -0.001,-1.062214"
               style="mix-blend-mode:normal;fill:#303234;fill-opacity:1;fill-rule:nonzero;stroke:none;stroke-width:0.352778"
               id="path281" />
            <path
               d="m 160.9607,46.728023 c -0.0109,-0.337256 -0.0116,-0.773642 0.11853,-1.198033 0.25365,-0.827617 0.81386,-1.319036 1.66723,-1.438275 0.53763,-0.07479 1.07915,-0.02893 1.61361,0.09313 0.20037,0.04586 0.28363,0.142169 0.27622,0.342194 -0.008,0.207787 -0.005,0.415925 -0.001,0.623712 0.004,0.214136 -0.0878,0.296333 -0.30762,0.273755 -0.29986,-0.0314 -0.60219,-0.03845 -0.90346,-0.05468 -0.54187,-0.02928 -0.83432,0.190147 -0.89429,0.728133 -0.0554,0.495653 -0.0579,0.999067 0.001,1.494367 0.0617,0.522816 0.33338,0.739069 0.86572,0.730602 0.31186,-0.0053 0.62336,-0.03351 0.93451,-0.05997 0.21202,-0.01799 0.31644,0.06138 0.30445,0.280458 -0.006,0.103717 -0.001,0.207787 -0.001,0.311856 0,0.64135 0,0.639939 -0.64664,0.719314 -0.37289,0.04551 -0.74789,0.08431 -1.12148,0.04163 -1.15959,-0.132645 -1.85985,-0.932392 -1.90465,-2.164645 -0.007,-0.207786 -0.001,-0.415925 -0.001,-0.723547"
               style="mix-blend-mode:normal;fill:#303234;fill-opacity:1;fill-rule:nonzero;stroke:none;stroke-width:0.352778"
               id="path285" />
            <path
               d="m 141.03475,46.982164 c 0,-0.739422 0.008,-1.478844 -0.005,-2.217914 -0.004,-0.238478 0.0861,-0.366183 0.30445,-0.437444 0.68368,-0.222603 1.38712,-0.274461 2.09973,-0.259292 0.16722,0.0035 0.24553,0.0829 0.24236,0.252589 -0.005,0.250119 -0.007,0.500239 7.1e-4,0.749653 0.005,0.183797 -0.0699,0.262466 -0.25647,0.269522 -0.27799,0.01023 -0.65899,-0.0755 -0.80116,0.111125 -0.13794,0.180622 -0.0473,0.538339 -0.048,0.818444 -0.002,0.958145 -3.5e-4,1.915936 -0.001,2.874081 -3.5e-4,0.377472 -0.0258,0.400755 -0.4124,0.402166 -0.27128,7.06e-4 -0.54292,-0.0046 -0.81386,0.0014 -0.2226,0.0049 -0.31609,-0.08185 -0.31291,-0.315384 0.0106,-0.7493 0.004,-1.499305 0.004,-2.248958"
               style="mix-blend-mode:normal;fill:#303234;fill-opacity:1;fill-rule:nonzero;stroke:none;stroke-width:0.352778"
               id="path289" />
            <path
               d="m 182.31614,46.858339 c 0,0.779992 -0.007,1.560336 0.004,2.339975 0.004,0.255411 -0.0829,0.361597 -0.3429,0.349955 -0.3122,-0.0134 -0.62547,-0.0053 -0.93803,-0.0028 -0.18062,0.0014 -0.26952,-0.08043 -0.26917,-0.263172 0.001,-1.518708 0.001,-3.037064 -3.5e-4,-4.555419 0,-0.196498 0.10971,-0.310798 0.27587,-0.375003 0.30162,-0.116769 0.61454,-0.188031 0.93909,-0.214489 0.24201,-0.01975 0.33761,0.07161 0.33479,0.318558 -0.009,0.800453 -0.004,1.601611 -0.004,2.402417"
               style="mix-blend-mode:normal;fill:#303234;fill-opacity:1;fill-rule:nonzero;stroke:none;stroke-width:0.352778"
               id="path293" />
          </g>
          <text
             xml:space="preserve"
             style="font-size:3.175px;opacity:1;fill:#ff0000;stroke-width:0.264583"
             x="34.73806"
             y="71.551064"
             id="text1"><tspan
               sodipodi:role="line"
               style="font-style:normal;font-variant:normal;font-weight:normal;font-stretch:normal;font-size:7.76111px;font-family:'DejaVu Sans';-inkscape-font-specification:'DejaVu Sans, Normal';font-variant-ligatures:normal;font-variant-caps:normal;font-variant-numeric:normal;font-variant-east-asian:normal;fill:#000000;stroke-width:0.264583"
               x="34.73806"
               y="71.551064"
               id="tspan3">End-to-end System Accuracy Check</tspan><tspan
               sodipodi:role="line"
               style="stroke-width:0.264583"
               x="34.73806"
               y="77.194817"
               id="tspan2" /></text>
        </g>
      </g>
    </g>
  </g>
</svg>
